# xmcd CD database file
#
# Track frame offsets:
#	150
#	18525
#	29855
#	50000
#	68770
#	101855
#	138617
#	154382
#	179977
#	197260
#	221025
#
# Disc length: 3281 seconds
#
# Revision: 3
# Processed by: cddbd v1.5.2PL0 Copyright (c) Steve Scherf et al.
# Submitted via: CDex 1.51
#
DISCID=b20ccf0b
DTITLE=Roosevelt "Booba" Barnes (and the Playboys) - The Heartbroken Man
DYEAR=1990
DGENRE=Blues
TTITLE0=How Long This Must Go On
TTITLE1=Don't Cry No More
TTITLE2=Ain't Going To Worry About Tomorrow
TTITLE3=Tell Me What I've Done/My Last Affair
TTITLE4=Heartbroken Man
TTITLE5=Blind Man/I Pity The Fool
TTITLE6=Rocking Daddy
TTITLE7=Tin Pan Alley
TTITLE8=Baby, Scratch My Back
TTITLE9=Louise Louise Blues
TTITLE10=No Place To Go
EXTD=Rooster Blues Records  R2623\n\nRoosevelt "Booba" Barnes:  vocals, guitar\nJames Earl Franklin:  bass\nWillie Miller:  bass\nJames Ford:  guitar\nTerry Taylor:  drums\n\n YEAR: 1990
EXTT0=
EXTT1=
EXTT2=
EXTT3=
EXTT4=
EXTT5=
EXTT6=
EXTT7=
EXTT8=
EXTT9=
EXTT10=
PLAYORDER=
